<svg height="637pt" viewBox="0 -4 637.50068 637" width="637pt" xmlns="http://www.w3.org/2000/svg"><path d="m194.238281 312.691406c.046875-17.320312-10.371093-32.964844-26.378906-39.589844-16.003906-6.628906-34.429687-2.945312-46.652344 9.347657-12.207031 12.289062-15.796875 30.730469-9.070312 46.699219 6.722656 15.96875 22.421875 26.296874 39.75 26.148437 23.398437-.210937 42.28125-19.207031 42.351562-42.605469zm-42.351562 17.621094c-9.796875 0-17.742188-7.945312-17.742188-17.746094 0-9.796875 7.945313-17.742187 17.742188-17.742187 9.792969 0 17.734375 7.945312 17.734375 17.742187 0 9.800782-7.941406 17.746094-17.734375 17.746094zm0 0"/><path d="m485.3125 355.296875c23.597656 0 42.726562-19.132813 42.726562-42.730469 0-23.59375-19.128906-42.722656-42.726562-42.722656-23.59375 0-42.722656 19.128906-42.722656 42.722656 0 23.597656 19.128906 42.730469 42.722656 42.730469zm0-60.339844c9.796875 0 17.738281 7.9375 17.738281 17.734375 0 9.800782-7.941406 17.742188-17.738281 17.742188-9.800781 0-17.738281-7.941406-17.738281-17.742188 0-9.796875 7.9375-17.734375 17.738281-17.734375zm0 0"/><path d="m18.339844 523.316406c69.460937-37.476562 100.8125-20.609375 137.417968 0 23.957032 15.820313 51.773438 24.800782 80.453126 25.988282 31.03125-1.074219 61.332031-9.648438 88.320312-24.984376 69.457031-37.480468 100.820312-20.613281 137.421875 0 23.949219 15.816407 51.769531 24.796876 80.453125 25.984376 31.023438-1.074219 61.332031-9.644532 88.324219-24.984376 6.140625-3.175781 8.542969-10.726562 5.375-16.867187-3.179688-6.140625-10.730469-8.550781-16.867188-5.375-56.347656 29.359375-89.703125 25.738281-118.183593 13.492187l99.941406-255.96875c1.367187-3.496093 1.089844-7.417968-.75-10.691406-1.835938-3.265625-5.054688-5.535156-8.75-6.175781l-71.078125-13.367187v-77.453126c-.003907-5.015624-3.003907-9.539062-7.621094-11.492187l-89.199219-38.359375v-90.320312c0-6.898438-5.59375-12.492188-12.492187-12.492188h-185.261719c-6.90625 0-12.492188 5.59375-12.492188 12.492188v89.703124l-89.195312 38.34375c-4.617188 1.960938-7.621094 6.488282-7.625 11.503907v78.074219l-70.832031 12.496093c-3.699219.636719-6.90625 2.90625-8.746094 6.179688-1.84375 3.265625-2.121094 7.191406-.75 10.679687l86.699219 220.496094c-28.855469-8.371094-64.832032-7.492188-116.554688 20.734375-6.039062 3.453125-8.140625 11.144531-4.683594 17.179687 3.449219 6.039063 11.136719 8.136719 17.175782 4.683594zm219.996094-498.082031h160.277343v72.835937h-160.277343zm-96.820313 135.300781 87.445313-37.480468h179.523437l87.445313 37.480468v64.960938l-174.894532-30.234375h-4.246094l-174.894531 30.234375zm-77.078125 103.4375 66.085938-11.5 174.894531-30.226562v134.671875c0 6.898437 5.59375 12.492187 12.492187 12.492187 6.902344 0 12.492188-5.59375 12.492188-12.492187v-134.546875l174.898437 30.230468 66.089844 11.492188-93.695313 239.613281-4.496093-2.503906c-37.476563-20.738281-79.582031-44.21875-160.914063 0-74.949218 38.851563-108.929687 19.863281-145.035156 0l-12.492188-6.871094zm0 0"/><path d="m18.339844 605.148438c69.460937-37.476563 100.8125-20.621094 137.417968 0 23.984376 15.417968 51.703126 24.046874 80.199219 24.984374 31.035157-1.074218 61.335938-9.644531 88.328125-24.984374 69.457032-37.476563 100.8125-20.621094 137.421875 0 24.015625 15.4375 51.78125 24.074218 80.320313 24.984374 31.03125-1.074218 61.339844-9.644531 88.324218-24.984374 6.136719-3.179688 8.542969-10.730469 5.371094-16.867188-3.171875-6.140625-10.726562-8.546875-16.867187-5.375-74.957031 38.851562-108.929688 19.859375-145.035157 0-36.109374-19.859375-79.582031-44.226562-160.902343 0-74.957031 38.851562-108.941407 19.859375-145.039063 0-36.105468-19.859375-79.707031-44.226562-161.28125 0-6.039062 3.453125-8.136718 11.140625-4.683594 17.179688 3.445313 6.039062 11.136719 8.132812 17.175782 4.683593zm0 0"/></svg>